# xmcd
#
# Track frame offsets: 
#        150
#        16875
#        35597
#        50690
#        69085
#        78172
#        92562
#        107227
#        122677
#        139135
#        156405
#        175927
#        190535
#        206062
#        233505
#
# Disc length: 4440 seconds
#
# Revision: 2
# Processed by: cddbd v1.5.2PL0 Copyright (c) Steve Scherf et al.
# Submitted via: ExactAudioCopy v1.3
#
DISCID=bf11560f
DTITLE=Intocable - Diez X (disco 1)
DYEAR=2005
DGENRE=Tejana
TTITLE0=Soledad (Siento morir)
TTITLE1=Alguien te va a hacer llorar
TTITLE2=En paz descanse
TTITLE3=Aire
TTITLE4=Momentos
TTITLE5=Olvidame tú
TTITLE6=A oscuras
TTITLE7=Herido del corazón
TTITLE8=Ahora que te perdí
TTITLE9=Te amo
TTITLE10=Es mejor decir adiós
TTITLE11=Es alguien más
TTITLE12=Tiempo
TTITLE13=A veces
TTITLE14=Pista de Datos
EXTD=
EXTT0=
EXTT1=
EXTT2=
EXTT3=
EXTT4=
EXTT5=
EXTT6=
EXTT7=
EXTT8=
EXTT9=
EXTT10=
EXTT11=
EXTT12=
EXTT13=
EXTT14=
PLAYORDER=
